<svg width="984" height="199" viewBox="0 0 984 199" fill="none" xmlns="http://www.w3.org/2000/svg">
<path d="M963.595 18.6237C967.322 18.6237 969.094 17.2927 969.094 14.3657V14.2757C969.094 11.1727 967.232 9.93174 963.595 9.93174H958.809V18.6237H963.595ZM957.123 8.33474H963.508C967.853 8.33474 970.867 10.3757 970.867 14.2757V14.3657C970.867 17.8237 968.563 19.5097 965.105 19.9517L972.022 29.8857H970.07L963.153 20.0407H958.809V29.8857H957.123V8.33474ZM981.687 19.5967C981.687 9.40074 973.884 1.32874 963.508 1.32874C953.309 1.32874 945.327 9.48974 945.327 19.6857C945.327 30.0617 953.399 37.8677 963.508 37.8677C973.705 37.8677 981.687 29.9747 981.687 19.5967ZM943.82 19.6857C943.82 8.77974 952.512 0.000740051 963.508 0.000740051C974.68 0.000740051 983.194 8.68974 983.194 19.5967C983.194 30.6817 974.504 39.1957 963.508 39.1957C952.599 39.1957 943.82 30.7717 943.82 19.6857Z" fill="white"/>
<path d="M53.313 97.449C78.152 97.449 92.389 95.418 92.389 59.068C92.086 29.08 79.667 11.814 58.16 11.814C54.829 11.814 51.193 11.814 47.558 12.117C47.255 25.142 46.952 38.168 46.952 50.587V97.449H53.313ZM145.701 198.409H96.63L77.849 127.437C74.215 114.411 70.277 109.565 65.128 108.656C59.675 108.353 53.01 108.353 46.952 108.353V146.308C46.952 162.664 49.678 180.842 55.132 198.409H0.303001C6.666 180.842 8.18 162.664 8.18 141.068V45.348C8.18 34.229 6.666 17.569 0 0H68.458C99.659 0 132.374 11.814 132.374 53.616C132.374 80.878 114.805 92.299 99.054 99.871C110.261 101.387 114.502 107.142 119.046 122.288L131.161 167.208C134.191 177.81 138.735 188.413 145.701 198.409Z" fill="white"/>
<path d="M550.022 0.000671387C539.116 12.7227 531.544 25.7477 526.395 46.9517L488.833 198.41H466.417L422.797 61.7947L378.572 198.41H357.369L317.688 46.9517C312.841 28.7777 306.782 13.6307 295.574 0.000671387H361.913C359.186 3.93767 358.277 10.9047 358.277 18.7817C358.277 27.2627 359.489 36.9557 361.307 45.4367L383.116 148.125L415.831 39.6817C410.076 22.4157 404.927 10.6027 396.747 0.000671387H462.48C459.451 4.24167 457.632 10.2997 457.632 18.4777C457.632 26.3547 459.148 35.4407 461.57 45.4367L488.53 148.428L511.552 45.4367C513.369 37.8637 514.277 29.3827 514.277 21.5077C514.277 12.4197 513.066 4.24167 510.642 0.000671387H550.022Z" fill="white"/>
<path d="M605.587 0.000854492H567.263V198.41H605.587V0.000854492Z" fill="white"/>
<path d="M166.322 0.000488281V11.6095H166.169V194.07H166.322V198.409H278.219V144.188C263.679 169.026 248.534 185.082 207.034 185.99H206.159V13.9355H208.55C246.715 16.3585 264.587 30.8985 278.522 55.4345V0.000488281H166.322Z" fill="white"/>
<path d="M278.521 121.395V78.5304L241.398 99.9624L278.521 121.395Z" fill="white"/>
<path d="M854.944 184.778C851.914 184.778 848.886 184.778 845.856 184.475C845.838 184.321 845.83 184.168 845.813 184.015V12.4202H852.219C887.356 12.4202 903.41 51.4952 903.41 102.386C903.41 146.913 892.506 184.778 854.944 184.778ZM859.791 0.00119019H797.693C803.448 15.1462 805.872 33.0172 805.872 50.5872V146.308C805.872 162.664 803.753 180.842 797.693 198.409H857.671C905.53 198.409 943.697 162.059 943.697 94.8122C943.697 26.3542 903.107 0.00119019 859.791 0.00119019Z" fill="white"/>
<path d="M743.784 0.000488281C749.842 17.5695 751.961 33.6235 751.961 49.9805V135.1L670.789 0.000488281H644.695V33.2995V145.143V198.409H651.561H659.722H667.518C662.454 183.723 660.239 168.613 659.722 154.982V153.911C659.641 151.86 659.603 149.807 659.591 147.751L659.573 145.143V60.5835L743.177 198.409H767.329V0.000488281H743.784Z" fill="white"/>
</svg>
